<svg width="645" height="160" viewBox="0 0 645 160" fill="none" xmlns="http://www.w3.org/2000/svg">
<path d="M644 48.8889C644 51.7856 642.06 54.8212 637.853 57.9382C633.671 61.0362 627.44 64.0667 619.319 66.9773C603.089 72.7941 579.549 78.0499 550.392 82.4698C492.094 91.3074 411.522 96.7778 322.5 96.7778C233.478 96.7778 152.906 91.3074 94.6079 82.4698C65.4513 78.0499 41.9107 72.7941 25.681 66.9773C17.5602 64.0667 11.3292 61.0362 7.14732 57.9382C2.93978 54.8212 1 51.7856 1 48.8889C1 45.9922 2.93978 42.9566 7.14732 39.8396C11.3292 36.7416 17.5602 33.7111 25.681 30.8005C41.9107 24.9837 65.4513 19.7279 94.6079 15.3079C152.906 6.47038 233.478 1 322.5 1C411.522 1 492.094 6.47038 550.392 15.3079C579.549 19.7279 603.089 24.9837 619.319 30.8005C627.44 33.7111 633.671 36.7416 637.853 39.8396C642.06 42.9566 644 45.9922 644 48.8889Z" stroke="#323232" stroke-width="2"/>
<path d="M644 111.111C644 114.008 642.06 117.043 637.853 120.16C633.671 123.258 627.44 126.289 619.319 129.2C603.089 135.016 579.549 140.272 550.392 144.692C492.094 153.53 411.522 159 322.5 159C233.478 159 152.906 153.53 94.6079 144.692C65.4513 140.272 41.9107 135.016 25.681 129.2C17.5602 126.289 11.3292 123.258 7.14732 120.16C2.93978 117.043 1 114.008 1 111.111C1 108.214 2.93978 105.179 7.14732 102.062C11.3292 98.9638 17.5602 95.9333 25.681 93.0227C41.9107 87.2059 65.4513 81.9501 94.6079 77.5302C152.906 68.6926 233.478 63.2222 322.5 63.2222C411.522 63.2222 492.094 68.6926 550.392 77.5302C579.549 81.9501 603.089 87.2059 619.319 93.0227C627.44 95.9333 633.671 98.9638 637.853 102.062C642.06 105.179 644 108.214 644 111.111Z" stroke="#323232" stroke-width="2"/>
<path d="M644 88.8889C644 91.7856 642.06 94.8212 637.853 97.9382C633.671 101.036 627.44 104.067 619.319 106.977C603.089 112.794 579.549 118.05 550.392 122.47C492.094 131.307 411.522 136.778 322.5 136.778C233.478 136.778 152.906 131.307 94.6079 122.47C65.4513 118.05 41.9107 112.794 25.681 106.977C17.5602 104.067 11.3292 101.036 7.14732 97.9382C2.93978 94.8212 1 91.7856 1 88.8889C1 85.9922 2.93978 82.9566 7.14732 79.8396C11.3292 76.7416 17.5602 73.7111 25.681 70.8005C41.9107 64.9837 65.4513 59.7279 94.6079 55.3079C152.906 46.4704 233.478 41 322.5 41C411.522 41 492.094 46.4704 550.392 55.3079C579.549 59.7279 603.089 64.9837 619.319 70.8005C627.44 73.7111 633.671 76.7416 637.853 79.8396C642.06 82.9566 644 85.9922 644 88.8889Z" stroke="#323232" stroke-width="2"/>
<path d="M644 68.8889C644 71.7856 642.06 74.8212 637.853 77.9382C633.671 81.0362 627.44 84.0667 619.319 86.9773C603.089 92.7941 579.549 98.0499 550.392 102.47C492.094 111.307 411.522 116.778 322.5 116.778C233.478 116.778 152.906 111.307 94.6079 102.47C65.4513 98.0499 41.9107 92.7941 25.681 86.9773C17.5602 84.0667 11.3292 81.0362 7.14732 77.9382C2.93978 74.8212 1 71.7856 1 68.8889C1 65.9922 2.93978 62.9566 7.14732 59.8396C11.3292 56.7416 17.5602 53.7111 25.681 50.8005C41.9107 44.9837 65.4513 39.7279 94.6079 35.3079C152.906 26.4704 233.478 21 322.5 21C411.522 21 492.094 26.4704 550.392 35.3079C579.549 39.7279 603.089 44.9837 619.319 50.8005C627.44 53.7111 633.671 56.7416 637.853 59.8396C642.06 62.9566 644 65.9922 644 68.8889Z" stroke="#323232" stroke-width="2"/>
</svg>
